# MagicaVoxel @ Ephtracy

# group
o 

# material
mtllib PolloPollo.mtl
usemtl palette

# normals
vn -1 0 0
vn 1 0 0
vn 0 0 1
vn 0 0 -1
vn 0 -1 0
vn 0 1 0

# texcoords
vt 0.306641 0.5
vt 0.970703 0.5
vt 0.974609 0.5
vt 0.978516 0.5
vt 0.994141 0.5

# verts
v -2 1.2 -6.7
v -2 1.2 -7.3
v -2 1.5 -6.7
v -2 1.5 -7.3
v -1.9 0.6 -6.9
v -1.9 0.6 -7.4
v -1.9 0.7 -6.9
v -1.9 0.7 -7.4
v -1.8 0.7 -7
v -1.8 0.7 -7.1
v -1.8 1.1 -6.5
v -1.8 1.1 -7
v -1.8 1.1 -7.1
v -1.8 1.1 -7.5
v -1.8 1.2 -6.7
v -1.8 1.2 -7.3
v -1.8 1.5 -6.7
v -1.8 1.5 -7.3
v -1.8 1.6 -6.5
v -1.8 1.6 -6.8
v -1.8 2.1 -7.2
v -1.8 2.1 -7.3
v -1.8 2.2 -7.2
v -1.8 2.2 -7.3
v -1.8 2.4 -6.8
v -1.8 2.4 -7.5
v -1.7 0.6 -7.2
v -1.7 0.6 -7.4
v -1.7 0.7 -7.2
v -1.7 0.7 -7.4
v -1.7 1.1 -6.4
v -1.7 1.1 -6.5
v -1.7 1.6 -6.4
v -1.7 1.6 -6.5
v -1.6 2 -7.5
v -1.6 2 -7.7
v -1.6 2.1 -7.5
v -1.6 2.1 -7.7
v -1.6 2.1 -7.8
v -1.6 2.3 -7.5
v -1.6 2.3 -7.8
v -1.6 2.4 -7
v -1.6 2.4 -7.4
v -1.6 2.6 -7
v -1.6 2.6 -7.4
v -1.4 0.6 -6.9
v -1.4 0.6 -7.4
v -1.4 0.7 -6.9
v -1.4 0.7 -7.4
v -1.3 0.7 -7
v -1.3 0.7 -7.1
v -1.3 1.1 -7
v -1.3 1.1 -7.1
v -1.2 0.6 -7.2
v -1.2 0.6 -7.4
v -1.2 0.7 -7.2
v -1.2 0.7 -7.4
v -1.8 0.6 -7.2
v -1.8 0.6 -7.4
v -1.8 0.7 -7.2
v -1.8 0.7 -7.4
v -1.7 0.7 -7
v -1.7 0.7 -7.1
v -1.7 1.1 -7
v -1.7 1.1 -7.1
v -1.6 0.6 -6.9
v -1.6 0.6 -7.4
v -1.6 0.7 -6.9
v -1.6 0.7 -7.4
v -1.4 2 -7.5
v -1.4 2 -7.7
v -1.4 2.1 -7.5
v -1.4 2.1 -7.7
v -1.4 2.1 -7.8
v -1.4 2.3 -7.5
v -1.4 2.3 -7.8
v -1.4 2.4 -7
v -1.4 2.4 -7.4
v -1.4 2.6 -7
v -1.4 2.6 -7.4
v -1.3 0.6 -7.2
v -1.3 0.6 -7.4
v -1.3 0.7 -7.2
v -1.3 0.7 -7.4
v -1.3 1.1 -6.4
v -1.3 1.1 -6.5
v -1.3 1.6 -6.4
v -1.3 1.6 -6.5
v -1.2 0.7 -7
v -1.2 0.7 -7.1
v -1.2 1.1 -6.5
v -1.2 1.1 -7
v -1.2 1.1 -7.1
v -1.2 1.1 -7.5
v -1.2 1.2 -6.7
v -1.2 1.2 -7.3
v -1.2 1.5 -6.7
v -1.2 1.5 -7.3
v -1.2 1.6 -6.5
v -1.2 1.6 -6.8
v -1.2 2.1 -7.2
v -1.2 2.1 -7.3
v -1.2 2.2 -7.2
v -1.2 2.2 -7.3
v -1.2 2.4 -6.8
v -1.2 2.4 -7.5
v -1.1 0.6 -6.9
v -1.1 0.6 -7.4
v -1.1 0.7 -6.9
v -1.1 0.7 -7.4
v -1 1.2 -6.7
v -1 1.2 -7.3
v -1 1.5 -6.7
v -1 1.5 -7.3
v -1.7 1.1 -6.4
v -1.7 1.6 -6.4
v -1.3 1.1 -6.4
v -1.3 1.6 -6.4
v -1.8 1.1 -6.5
v -1.8 1.6 -6.5
v -1.7 1.1 -6.5
v -1.7 1.6 -6.5
v -1.3 1.1 -6.5
v -1.3 1.6 -6.5
v -1.2 1.1 -6.5
v -1.2 1.6 -6.5
v -2 1.2 -6.7
v -2 1.5 -6.7
v -1.8 1.2 -6.7
v -1.8 1.5 -6.7
v -1.2 1.2 -6.7
v -1.2 1.5 -6.7
v -1 1.2 -6.7
v -1 1.5 -6.7
v -1.8 1.6 -6.8
v -1.8 2.4 -6.8
v -1.2 1.6 -6.8
v -1.2 2.4 -6.8
v -1.9 0.6 -6.9
v -1.9 0.7 -6.9
v -1.6 0.6 -6.9
v -1.6 0.7 -6.9
v -1.4 0.6 -6.9
v -1.4 0.7 -6.9
v -1.1 0.6 -6.9
v -1.1 0.7 -6.9
v -1.8 0.7 -7
v -1.8 1.1 -7
v -1.7 0.7 -7
v -1.7 1.1 -7
v -1.6 2.4 -7
v -1.6 2.6 -7
v -1.4 2.4 -7
v -1.4 2.6 -7
v -1.3 0.7 -7
v -1.3 1.1 -7
v -1.2 0.7 -7
v -1.2 1.1 -7
v -1.8 0.7 -7.1
v -1.8 1.1 -7.1
v -1.7 0.7 -7.1
v -1.7 1.1 -7.1
v -1.3 0.7 -7.1
v -1.3 1.1 -7.1
v -1.2 0.7 -7.1
v -1.2 1.1 -7.1
v -1.8 0.6 -7.2
v -1.8 0.7 -7.2
v -1.7 0.6 -7.2
v -1.7 0.7 -7.2
v -1.3 0.6 -7.2
v -1.3 0.7 -7.2
v -1.2 0.6 -7.2
v -1.2 0.7 -7.2
v -2 1.2 -7.3
v -2 1.5 -7.3
v -1.8 1.2 -7.3
v -1.8 1.5 -7.3
v -1.2 1.2 -7.3
v -1.2 1.5 -7.3
v -1 1.2 -7.3
v -1 1.5 -7.3
v -1.9 0.6 -7.4
v -1.9 0.7 -7.4
v -1.8 0.6 -7.4
v -1.8 0.7 -7.4
v -1.7 0.6 -7.4
v -1.7 0.7 -7.4
v -1.6 0.6 -7.4
v -1.6 0.7 -7.4
v -1.6 2.4 -7.4
v -1.6 2.6 -7.4
v -1.4 0.6 -7.4
v -1.4 0.7 -7.4
v -1.4 2.4 -7.4
v -1.4 2.6 -7.4
v -1.3 0.6 -7.4
v -1.3 0.7 -7.4
v -1.2 0.6 -7.4
v -1.2 0.7 -7.4
v -1.1 0.6 -7.4
v -1.1 0.7 -7.4
v -1.8 1.1 -7.5
v -1.8 2.4 -7.5
v -1.6 2 -7.5
v -1.6 2.1 -7.5
v -1.6 2.3 -7.5
v -1.4 2 -7.5
v -1.4 2.1 -7.5
v -1.4 2.3 -7.5
v -1.2 1.1 -7.5
v -1.2 2.4 -7.5
v -1.6 2 -7.7
v -1.6 2.1 -7.7
v -1.4 2 -7.7
v -1.4 2.1 -7.7
v -1.6 2.1 -7.8
v -1.6 2.3 -7.8
v -1.4 2.1 -7.8
v -1.4 2.3 -7.8
v -1.9 0.6 -6.9
v -1.6 0.6 -6.9
v -1.4 0.6 -6.9
v -1.1 0.6 -6.9
v -1.8 0.6 -7.2
v -1.7 0.6 -7.2
v -1.3 0.6 -7.2
v -1.2 0.6 -7.2
v -1.9 0.6 -7.4
v -1.8 0.6 -7.4
v -1.7 0.6 -7.4
v -1.6 0.6 -7.4
v -1.4 0.6 -7.4
v -1.3 0.6 -7.4
v -1.2 0.6 -7.4
v -1.1 0.6 -7.4
v -1.7 1.1 -6.4
v -1.3 1.1 -6.4
v -1.8 1.1 -6.5
v -1.7 1.1 -6.5
v -1.3 1.1 -6.5
v -1.2 1.1 -6.5
v -1.8 1.1 -7
v -1.7 1.1 -7
v -1.3 1.1 -7
v -1.2 1.1 -7
v -1.8 1.1 -7.1
v -1.7 1.1 -7.1
v -1.3 1.1 -7.1
v -1.2 1.1 -7.1
v -1.8 1.1 -7.5
v -1.2 1.1 -7.5
v -2 1.2 -6.7
v -1.8 1.2 -6.7
v -1.2 1.2 -6.7
v -1 1.2 -6.7
v -2 1.2 -7.3
v -1.8 1.2 -7.3
v -1.2 1.2 -7.3
v -1 1.2 -7.3
v -1.6 2 -7.5
v -1.4 2 -7.5
v -1.6 2 -7.7
v -1.4 2 -7.7
v -1.6 2.1 -7.7
v -1.4 2.1 -7.7
v -1.6 2.1 -7.8
v -1.4 2.1 -7.8
v -1.9 0.7 -6.9
v -1.6 0.7 -6.9
v -1.4 0.7 -6.9
v -1.1 0.7 -6.9
v -1.8 0.7 -7
v -1.7 0.7 -7
v -1.3 0.7 -7
v -1.2 0.7 -7
v -1.8 0.7 -7.1
v -1.7 0.7 -7.1
v -1.3 0.7 -7.1
v -1.2 0.7 -7.1
v -1.8 0.7 -7.2
v -1.7 0.7 -7.2
v -1.3 0.7 -7.2
v -1.2 0.7 -7.2
v -1.9 0.7 -7.4
v -1.8 0.7 -7.4
v -1.7 0.7 -7.4
v -1.6 0.7 -7.4
v -1.4 0.7 -7.4
v -1.3 0.7 -7.4
v -1.2 0.7 -7.4
v -1.1 0.7 -7.4
v -2 1.5 -6.7
v -1.8 1.5 -6.7
v -1.2 1.5 -6.7
v -1 1.5 -6.7
v -2 1.5 -7.3
v -1.8 1.5 -7.3
v -1.2 1.5 -7.3
v -1 1.5 -7.3
v -1.7 1.6 -6.4
v -1.3 1.6 -6.4
v -1.8 1.6 -6.5
v -1.7 1.6 -6.5
v -1.3 1.6 -6.5
v -1.2 1.6 -6.5
v -1.8 1.6 -6.8
v -1.2 1.6 -6.8
v -1.6 2.3 -7.5
v -1.4 2.3 -7.5
v -1.6 2.3 -7.8
v -1.4 2.3 -7.8
v -1.8 2.4 -6.8
v -1.2 2.4 -6.8
v -1.6 2.4 -7
v -1.4 2.4 -7
v -1.6 2.4 -7.4
v -1.4 2.4 -7.4
v -1.8 2.4 -7.5
v -1.2 2.4 -7.5
v -1.6 2.6 -7
v -1.4 2.6 -7
v -1.6 2.6 -7.4
v -1.4 2.6 -7.4

# faces
f 3/2/1 2/2/1 1/2/1
f 4/2/1 2/2/1 3/2/1
f 7/3/1 6/3/1 5/3/1
f 8/3/1 6/3/1 7/3/1
f 12/3/1 10/3/1 9/3/1
f 13/3/1 10/3/1 12/3/1
f 15/2/1 12/2/1 11/2/1
f 15/2/1 14/2/1 13/2/1
f 15/2/1 13/2/1 12/2/1
f 16/2/1 14/2/1 15/2/1
f 17/2/1 15/2/1 11/2/1
f 18/2/1 14/2/1 16/2/1
f 19/2/1 17/2/1 11/2/1
f 19/2/1 18/2/1 17/2/1
f 20/2/1 18/2/1 19/2/1
f 21/2/1 18/2/1 20/2/1
f 22/2/1 14/2/1 18/2/1
f 22/2/1 18/2/1 21/2/1
f 23/2/1 21/2/1 20/2/1
f 23/5/1 22/5/1 21/5/1
f 24/2/1 14/2/1 22/2/1
f 24/5/1 22/5/1 23/5/1
f 25/2/1 23/2/1 20/2/1
f 25/2/1 24/2/1 23/2/1
f 26/2/1 14/2/1 24/2/1
f 26/2/1 24/2/1 25/2/1
f 29/3/1 28/3/1 27/3/1
f 30/3/1 28/3/1 29/3/1
f 33/2/1 32/2/1 31/2/1
f 34/2/1 32/2/1 33/2/1
f 37/4/1 36/4/1 35/4/1
f 38/4/1 36/4/1 37/4/1
f 40/3/1 38/3/1 37/3/1
f 40/3/1 39/3/1 38/3/1
f 41/3/1 39/3/1 40/3/1
f 44/4/1 43/4/1 42/4/1
f 45/4/1 43/4/1 44/4/1
f 48/3/1 47/3/1 46/3/1
f 49/3/1 47/3/1 48/3/1
f 52/3/1 51/3/1 50/3/1
f 53/3/1 51/3/1 52/3/1
f 56/3/1 55/3/1 54/3/1
f 57/3/1 55/3/1 56/3/1
f 58/3/2 59/3/2 60/3/2
f 60/3/2 59/3/2 61/3/2
f 62/3/2 63/3/2 64/3/2
f 64/3/2 63/3/2 65/3/2
f 66/3/2 67/3/2 68/3/2
f 68/3/2 67/3/2 69/3/2
f 70/4/2 71/4/2 72/4/2
f 72/4/2 71/4/2 73/4/2
f 72/3/2 73/3/2 75/3/2
f 73/3/2 74/3/2 75/3/2
f 75/3/2 74/3/2 76/3/2
f 77/4/2 78/4/2 79/4/2
f 79/4/2 78/4/2 80/4/2
f 81/3/2 82/3/2 83/3/2
f 83/3/2 82/3/2 84/3/2
f 85/2/2 86/2/2 87/2/2
f 87/2/2 86/2/2 88/2/2
f 89/3/2 90/3/2 92/3/2
f 92/3/2 90/3/2 93/3/2
f 91/2/2 92/2/2 95/2/2
f 93/2/2 94/2/2 95/2/2
f 92/2/2 93/2/2 95/2/2
f 95/2/2 94/2/2 96/2/2
f 91/2/2 95/2/2 97/2/2
f 96/2/2 94/2/2 98/2/2
f 91/2/2 97/2/2 99/2/2
f 97/2/2 98/2/2 99/2/2
f 99/2/2 98/2/2 100/2/2
f 100/2/2 98/2/2 101/2/2
f 98/2/2 94/2/2 102/2/2
f 101/2/2 98/2/2 102/2/2
f 100/2/2 101/2/2 103/2/2
f 101/5/2 102/5/2 103/5/2
f 102/2/2 94/2/2 104/2/2
f 103/5/2 102/5/2 104/5/2
f 100/2/2 103/2/2 105/2/2
f 103/2/2 104/2/2 105/2/2
f 104/2/2 94/2/2 106/2/2
f 105/2/2 104/2/2 106/2/2
f 107/3/2 108/3/2 109/3/2
f 109/3/2 108/3/2 110/3/2
f 111/2/2 112/2/2 113/2/2
f 113/2/2 112/2/2 114/2/2
f 117/2/3 116/2/3 115/2/3
f 118/2/3 116/2/3 117/2/3
f 121/2/3 120/2/3 119/2/3
f 122/2/3 120/2/3 121/2/3
f 125/2/3 124/2/3 123/2/3
f 126/2/3 124/2/3 125/2/3
f 129/2/3 128/2/3 127/2/3
f 130/2/3 128/2/3 129/2/3
f 133/2/3 132/2/3 131/2/3
f 134/2/3 132/2/3 133/2/3
f 137/2/3 136/2/3 135/2/3
f 138/2/3 136/2/3 137/2/3
f 141/3/3 140/3/3 139/3/3
f 142/3/3 140/3/3 141/3/3
f 145/3/3 144/3/3 143/3/3
f 146/3/3 144/3/3 145/3/3
f 149/3/3 148/3/3 147/3/3
f 150/3/3 148/3/3 149/3/3
f 153/4/3 152/4/3 151/4/3
f 154/4/3 152/4/3 153/4/3
f 157/3/3 156/3/3 155/3/3
f 158/3/3 156/3/3 157/3/3
f 159/3/4 160/3/4 161/3/4
f 161/3/4 160/3/4 162/3/4
f 163/3/4 164/3/4 165/3/4
f 165/3/4 164/3/4 166/3/4
f 167/3/4 168/3/4 169/3/4
f 169/3/4 168/3/4 170/3/4
f 171/3/4 172/3/4 173/3/4
f 173/3/4 172/3/4 174/3/4
f 175/2/4 176/2/4 177/2/4
f 177/2/4 176/2/4 178/2/4
f 179/2/4 180/2/4 181/2/4
f 181/2/4 180/2/4 182/2/4
f 183/3/4 184/3/4 185/3/4
f 185/3/4 184/3/4 186/3/4
f 187/3/4 188/3/4 189/3/4
f 189/3/4 188/3/4 190/3/4
f 191/4/4 192/4/4 195/4/4
f 195/4/4 192/4/4 196/4/4
f 193/3/4 194/3/4 197/3/4
f 197/3/4 194/3/4 198/3/4
f 199/3/4 200/3/4 201/3/4
f 201/3/4 200/3/4 202/3/4
f 203/2/4 204/2/4 205/2/4
f 205/2/4 204/2/4 206/2/4
f 206/2/4 204/2/4 207/2/4
f 203/2/4 205/2/4 208/2/4
f 207/2/4 204/2/4 210/2/4
f 208/2/4 209/2/4 211/2/4
f 209/2/4 210/2/4 211/2/4
f 203/2/4 208/2/4 211/2/4
f 210/2/4 204/2/4 212/2/4
f 211/2/4 210/2/4 212/2/4
f 213/4/4 214/4/4 215/4/4
f 215/4/4 214/4/4 216/4/4
f 217/3/4 218/3/4 219/3/4
f 219/3/4 218/3/4 220/3/4
f 225/3/5 222/3/5 221/3/5
f 226/3/5 222/3/5 225/3/5
f 227/3/5 224/3/5 223/3/5
f 228/3/5 224/3/5 227/3/5
f 229/3/5 225/3/5 221/3/5
f 230/3/5 225/3/5 229/3/5
f 231/3/5 222/3/5 226/3/5
f 232/3/5 222/3/5 231/3/5
f 233/3/5 227/3/5 223/3/5
f 234/3/5 227/3/5 233/3/5
f 235/3/5 224/3/5 228/3/5
f 236/3/5 224/3/5 235/3/5
f 240/2/5 238/2/5 237/2/5
f 241/2/5 238/2/5 240/2/5
f 243/2/5 240/2/5 239/2/5
f 243/2/5 242/2/5 241/2/5
f 243/2/5 241/2/5 240/2/5
f 244/2/5 242/2/5 243/2/5
f 245/2/5 242/2/5 244/2/5
f 246/2/5 242/2/5 245/2/5
f 248/2/5 245/2/5 244/2/5
f 249/2/5 245/2/5 248/2/5
f 251/2/5 248/2/5 247/2/5
f 251/2/5 250/2/5 249/2/5
f 251/2/5 249/2/5 248/2/5
f 252/2/5 250/2/5 251/2/5
f 257/2/5 254/2/5 253/2/5
f 258/2/5 254/2/5 257/2/5
f 259/2/5 256/2/5 255/2/5
f 260/2/5 256/2/5 259/2/5
f 263/4/5 262/4/5 261/4/5
f 264/4/5 262/4/5 263/4/5
f 267/3/5 266/3/5 265/3/5
f 268/3/5 266/3/5 267/3/5
f 269/3/6 270/3/6 273/3/6
f 273/3/6 270/3/6 274/3/6
f 271/3/6 272/3/6 275/3/6
f 275/3/6 272/3/6 276/3/6
f 269/3/6 273/3/6 277/3/6
f 274/3/6 270/3/6 278/3/6
f 271/3/6 275/3/6 279/3/6
f 276/3/6 272/3/6 280/3/6
f 269/3/6 277/3/6 281/3/6
f 277/3/6 278/3/6 281/3/6
f 278/3/6 270/3/6 282/3/6
f 281/3/6 278/3/6 282/3/6
f 279/3/6 280/3/6 283/3/6
f 271/3/6 279/3/6 283/3/6
f 280/3/6 272/3/6 284/3/6
f 283/3/6 280/3/6 284/3/6
f 269/3/6 281/3/6 285/3/6
f 285/3/6 281/3/6 286/3/6
f 282/3/6 270/3/6 287/3/6
f 287/3/6 270/3/6 288/3/6
f 271/3/6 283/3/6 289/3/6
f 289/3/6 283/3/6 290/3/6
f 284/3/6 272/3/6 291/3/6
f 291/3/6 272/3/6 292/3/6
f 293/2/6 294/2/6 297/2/6
f 297/2/6 294/2/6 298/2/6
f 295/2/6 296/2/6 299/2/6
f 299/2/6 296/2/6 300/2/6
f 301/2/6 302/2/6 304/2/6
f 304/2/6 302/2/6 305/2/6
f 303/2/6 304/2/6 307/2/6
f 305/2/6 306/2/6 307/2/6
f 304/2/6 305/2/6 307/2/6
f 307/2/6 306/2/6 308/2/6
f 309/3/6 310/3/6 311/3/6
f 311/3/6 310/3/6 312/3/6
f 313/2/6 314/2/6 315/2/6
f 315/2/6 314/2/6 316/2/6
f 313/2/6 315/2/6 317/2/6
f 316/2/6 314/2/6 318/2/6
f 313/2/6 317/2/6 319/2/6
f 317/2/6 318/2/6 319/2/6
f 318/2/6 314/2/6 320/2/6
f 319/2/6 318/2/6 320/2/6
f 321/4/6 322/4/6 323/4/6
f 323/4/6 322/4/6 324/4/6
